ffmpeg started on 2016-11-27 at 19:46:20
Report written to "Output/NVENCh264/results/ffmpeg/old_town_cross_2160p50llhp2000k.log"
Command line:
Tools/ffmpeg/ffmpeg -benchmark -y -i Input/y4m/old_town_cross_2160p50.y4m -c:v h264_nvenc -preset llhp -b:v 2000k -an Output/NVENCh264/encoded/old_town_cross_2160p50llhp2000k.mkv
ffmpeg version N-82227-gdb23fde Copyright (c) 2000-2016 the FFmpeg developers
  built with gcc 5.4.0 (Ubuntu 5.4.0-6ubuntu1~16.04.2) 20160609
  configuration: --prefix=/home/jaroslav/ffmpeg_build --pkg-config-flags=--static --extra-cflags=-I/home/jaroslav/ffmpeg_build/include --extra-ldflags=-L/home/jaroslav/ffmpeg_build/lib --bindir=/home/jaroslav/bin --enable-gpl --enable-libass --enable-libfdk-aac --enable-libfreetype --enable-libmp3lame --enable-libopus --enable-libtheora --enable-libvorbis --enable-libvpx --enable-libx264 --enable-libx265 --enable-nvenc --enable-libmfx --enable-libxvid --enable-libgsm --enable-libopencore-amrnb --enable-version3 --enable-nonfree
  libavutil      55. 35.100 / 55. 35.100
  libavcodec     57. 66.101 / 57. 66.101
  libavformat    57. 57.100 / 57. 57.100
  libavdevice    57.  2.100 / 57.  2.100
  libavfilter     6. 66.100 /  6. 66.100
  libswscale      4.  3.100 /  4.  3.100
  libswresample   2.  4.100 /  2.  4.100
  libpostproc    54.  2.100 / 54.  2.100
Input #0, yuv4mpegpipe, from 'Input/y4m/old_town_cross_2160p50.y4m':
  Duration: 00:00:10.00, start: 0.000000, bitrate: 4976642 kb/s
    Stream #0:0: Video: rawvideo (I420 / 0x30323449), yuv420p(progressive), 3840x2160, SAR 1:1 DAR 16:9, 50 fps, 50 tbr, 50 tbn, 50 tbc
[h264_nvenc @ 0x28c9120] The variable bitrate rate-control requires the 'qmin' and/or 'qmax' option set.
Output #0, matroska, to 'Output/NVENCh264/encoded/old_town_cross_2160p50llhp2000k.mkv':
  Metadata:
    encoder         : Lavf57.57.100
    Stream #0:0: Video: h264 (h264_nvenc) (Main) (H264 / 0x34363248), yuv420p, 3840x2160 [SAR 1:1 DAR 16:9], q=-1--1, 2000 kb/s, 50 fps, 1k tbn, 50 tbc
    Metadata:
      encoder         : Lavc57.66.101 h264_nvenc
    Side data:
      cpb: bitrate max/min/avg: 0/0/2000000 buffer size: 4000000 vbv_delay: -1
Stream mapping:
  Stream #0:0 -> #0:0 (rawvideo (native) -> h264 (h264_nvenc))
Press [q] to stop, [?] for help
frame=   19 fps=0.0 q=0.0 size=       0kB time=00:00:00.00 bitrate=N/A speed=   0x    frame=   37 fps= 36 q=47.0 size=       1kB time=00:00:00.12 bitrate=  49.3kbits/s speed=0.119x    frame=   55 fps= 36 q=49.0 size=       1kB time=00:00:00.48 bitrate=  12.4kbits/s speed=0.314x    frame=   73 fps= 36 q=49.0 size=       1kB time=00:00:00.84 bitrate=   7.1kbits/s speed=0.412x    frame=   91 fps= 36 q=49.0 size=       1kB time=00:00:01.20 bitrate=   5.0kbits/s speed=0.47x    frame=  109 fps= 35 q=49.0 size=       1kB time=00:00:01.56 bitrate=   3.8kbits/s speed=0.508x    frame=  127 fps= 35 q=49.0 size=       1kB time=00:00:01.92 bitrate=   3.1kbits/s speed=0.534x    frame=  145 fps= 35 q=48.0 size=       1kB time=00:00:02.28 bitrate=   2.6kbits/s speed=0.555x    frame=  163 fps= 35 q=49.0 size=       1kB time=00:00:02.64 bitrate=   2.3kbits/s speed=0.571x    frame=  181 fps= 35 q=49.0 size=       1kB time=00:00:03.00 bitrate=   2.0kbits/s speed=0.584x    frame=  199 fps= 35 q=49.0 size=       1kB time=00:00:03.36 bitrate=   1.8kbits/s speed=0.595x    frame=  217 fps= 35 q=49.0 size=       1kB time=00:00:03.72 bitrate=   1.6kbits/s speed=0.604x    frame=  235 fps= 35 q=49.0 size=       1kB time=00:00:04.08 bitrate=   1.5kbits/s speed=0.611x    frame=  253 fps= 33 q=48.0 size=       1kB time=00:00:04.44 bitrate=   1.3kbits/s speed=0.588x    frame=  270 fps= 34 q=49.0 size=       1kB time=00:00:04.78 bitrate=   1.2kbits/s speed=0.593x    frame=  288 fps= 34 q=49.0 size=    1182kB time=00:00:05.14 bitrate=1883.2kbits/s speed=0.599x    frame=  306 fps= 34 q=49.0 size=    1182kB time=00:00:05.50 bitrate=1760.0kbits/s speed=0.605x    frame=  324 fps= 34 q=49.0 size=    1182kB time=00:00:05.86 bitrate=1651.9kbits/s speed=0.61x    frame=  342 fps= 34 q=49.0 size=    1182kB time=00:00:06.22 bitrate=1556.3kbits/s speed=0.615x    frame=  360 fps= 34 q=49.0 size=    1182kB time=00:00:06.58 bitrate=1471.1kbits/s speed=0.619x    frame=  378 fps= 34 q=49.0 size=    1182kB time=00:00:06.94 bitrate=1394.8kbits/s speed=0.623x    frame=  396 fps= 34 q=49.0 size=    1182kB time=00:00:07.30 bitrate=1326.1kbits/s speed=0.626x    frame=  414 fps= 34 q=49.0 size=    1182kB time=00:00:07.66 bitrate=1263.7kbits/s speed=0.629x    frame=  423 fps= 33 q=49.0 size=    1182kB time=00:00:07.84 bitrate=1234.7kbits/s speed=0.613x    frame=  441 fps= 33 q=49.0 size=    1182kB time=00:00:08.20 bitrate=1180.5kbits/s speed=0.616x    frame=  459 fps= 33 q=49.0 size=    1182kB time=00:00:08.56 bitrate=1130.9kbits/s speed=0.619x    frame=  477 fps= 32 q=49.0 size=    1182kB time=00:00:08.92 bitrate=1085.2kbits/s speed=0.603x    frame=  495 fps= 32 q=49.0 size=    1182kB time=00:00:09.28 bitrate=1043.2kbits/s speed=0.606x    frame=  500 fps= 32 q=49.0 Lsize=    2668kB time=00:00:09.98 bitrate=2189.7kbits/s speed=0.644x    
video:2664kB audio:0kB subtitle:0kB other streams:0kB global headers:0kB muxing overhead: 0.158819%
bench: utime=1.096s
bench: maxrss=1398440kB
